M48
; DRILL file {KiCad 9.0.3} date 2025-07-30T16:46:26-0700
; FORMAT={-:-/ absolute / metric / decimal}
; #@! TF.CreationDate,2025-07-30T16:46:26-07:00
; #@! TF.GenerationSoftware,Kicad,Pcbnew,9.0.3
; #@! TF.FileFunction,Plated,1,4,PTH
FMAT,2
METRIC
; #@! TA.AperFunction,Plated,PTH,ViaDrill
T1C0.300
; #@! TA.AperFunction,Plated,PTH,ViaDrill
T2C0.400
; #@! TA.AperFunction,Plated,PTH,ComponentDrill
T3C0.730
; #@! TA.AperFunction,Plated,PTH,ComponentDrill
T4C0.800
; #@! TA.AperFunction,Plated,PTH,ComponentDrill
T5C0.850
; #@! TA.AperFunction,Plated,PTH,ComponentDrill
T6C0.900
; #@! TA.AperFunction,Plated,PTH,ComponentDrill
T7C1.000
; #@! TA.AperFunction,Plated,PTH,ComponentDrill
T8C1.020
; #@! TA.AperFunction,Plated,PTH,ComponentDrill
T9C1.200
; #@! TA.AperFunction,Plated,PTH,ComponentDrill
T10C1.500
; #@! TA.AperFunction,Plated,PTH,ComponentDrill
T11C1.700
%
G90
G05
T1
X78.2Y-101.1
X79.45Y-98.4
X80.6Y-45.3
X80.6Y-143.3
X81.25Y-100.75
X85.6Y-45.3
X85.6Y-143.3
X90.6Y-45.3
X90.6Y-143.3
X95.6Y-45.3
X95.6Y-143.3
X100.6Y-45.3
X100.6Y-143.3
X105.6Y-45.3
X105.6Y-143.3
X110.6Y-45.3
X110.6Y-143.3
X115.6Y-45.3
X115.6Y-143.3
X120.6Y-45.3
X120.6Y-143.3
X125.6Y-45.3
X125.6Y-143.3
X129.2Y-93.9
X129.9Y-120.2
X130.6Y-45.3
X130.6Y-143.3
X135.6Y-45.3
X135.6Y-143.3
X140.6Y-45.3
X140.6Y-143.3
X142.3Y-90.0
X145.6Y-45.3
X145.6Y-143.3
X150.6Y-45.3
X150.6Y-143.3
X155.6Y-45.3
X155.6Y-143.3
X160.6Y-45.3
X160.6Y-143.3
X167.237Y-55.05
X167.237Y-63.55
X167.237Y-68.75
X167.237Y-77.25
X167.237Y-122.85
X167.237Y-131.35
X168.9Y-85.8
X168.9Y-92.8
T2
X79.8Y-100.1
X119.84Y-49.332
X119.9Y-73.2
X127.2Y-113.537
X132.54Y-49.332
X132.6Y-73.2
X140.0Y-113.537
T3
X75.05Y-77.2
X75.05Y-78.7
X75.05Y-80.2
X75.05Y-81.7
X75.05Y-83.2
X75.05Y-84.7
X75.05Y-86.2
X75.05Y-87.7
X75.05Y-89.2
X75.05Y-90.7
T4
X82.485Y-106.05
X82.485Y-108.59
X82.485Y-111.13
X86.78Y-105.02
X86.78Y-107.56
X86.78Y-110.1
X86.78Y-112.64
X89.795Y-79.99
X89.795Y-82.53
X89.795Y-85.07
X89.795Y-87.61
X92.555Y-73.9
X92.555Y-93.7
X92.7Y-128.345
X92.7Y-130.345
X93.44Y-53.995
X93.44Y-61.615
X94.4Y-105.02
X94.4Y-107.56
X94.4Y-110.1
X94.4Y-112.64
X94.555Y-73.9
X94.555Y-93.7
X95.98Y-53.995
X95.98Y-61.615
X97.415Y-79.99
X97.415Y-82.53
X97.415Y-85.07
X97.415Y-87.61
X98.385Y-103.83
X98.52Y-53.995
X98.52Y-61.615
X98.69Y-125.485
X98.69Y-133.105
X100.925Y-103.83
X101.06Y-53.995
X101.06Y-61.615
X101.23Y-125.485
X101.23Y-133.105
X103.465Y-103.83
X103.77Y-125.485
X103.77Y-133.105
X106.31Y-125.485
X106.31Y-133.105
X112.3Y-128.345
X112.3Y-130.345
X115.8Y-91.0
X115.8Y-98.5
X118.995Y-90.82
X118.995Y-93.36
X118.995Y-95.9
X118.995Y-98.44
X120.2Y-128.345
X120.2Y-130.345
X121.0Y-60.315
X121.0Y-62.315
X121.755Y-84.8
X121.755Y-104.5
X123.66Y-50.795
X123.7Y-71.737
X123.755Y-84.8
X123.755Y-104.5
X126.19Y-125.485
X126.19Y-133.105
X126.2Y-50.795
X126.24Y-71.737
X126.615Y-90.82
X126.615Y-93.36
X126.615Y-95.9
X126.615Y-98.44
X126.99Y-57.555
X126.99Y-65.175
X128.73Y-125.485
X128.73Y-133.105
X128.74Y-50.795
X128.78Y-71.737
X129.53Y-57.555
X129.53Y-65.175
X131.06Y-114.995
X131.27Y-125.485
X131.27Y-133.105
X131.885Y-91.03
X131.885Y-98.53
X132.07Y-57.555
X132.07Y-65.175
X133.6Y-114.995
X133.81Y-125.485
X133.81Y-133.105
X134.61Y-57.555
X134.61Y-65.175
X135.5Y-91.05
X135.5Y-98.55
X136.14Y-114.995
X139.9Y-128.345
X139.9Y-130.345
X140.61Y-60.315
X140.61Y-62.315
T5
X74.0Y-71.0
X78.2Y-71.0
X81.8Y-82.763
X81.8Y-87.263
X81.8Y-91.763
X82.4Y-71.0
X103.785Y-109.38
X103.785Y-113.88
X105.2Y-82.7
X105.2Y-87.2
X105.2Y-91.7
X111.1Y-93.25
X111.1Y-97.75
X140.0Y-93.35
X140.0Y-97.85
T6
X135.29Y-49.7
X135.29Y-53.1
X135.38Y-69.5
X135.38Y-72.9
X142.91Y-49.7
X142.91Y-53.1
X143.0Y-69.5
X143.0Y-72.9
T7
X114.96Y-55.1
X114.96Y-67.4
X117.5Y-55.1
X117.5Y-67.4
X119.86Y-118.4
X119.86Y-123.6
X122.4Y-118.4
X122.4Y-123.6
X156.2Y-83.3
X156.2Y-90.3
X156.2Y-97.3
X163.82Y-85.84
X163.82Y-92.84
X163.82Y-99.84
X168.9Y-83.3
X168.9Y-90.3
X168.9Y-97.3
T8
X166.9Y-108.76
X166.9Y-111.3
X166.9Y-113.84
T9
X90.65Y-50.6
X90.75Y-65.0
X91.5Y-137.6
X103.35Y-50.6
X103.45Y-65.0
X104.2Y-137.6
X125.95Y-137.4
X138.65Y-137.4
X144.55Y-123.1
X144.55Y-128.5
X144.55Y-132.9
X144.55Y-137.3
X146.96Y-59.3
X146.98Y-73.0
X157.25Y-123.1
X157.25Y-128.5
X157.25Y-132.9
X157.25Y-137.3
X161.25Y-124.65
X161.25Y-137.35
X162.2Y-59.3
X162.22Y-73.0
T10
X84.61Y-52.74
X84.61Y-62.9
X84.61Y-135.46
X154.5Y-116.5
T11
X82.07Y-50.2
X82.07Y-55.28
X82.07Y-60.36
X82.07Y-65.44
X82.07Y-132.92
X82.07Y-138.0
X87.15Y-50.2
X87.15Y-55.28
X87.15Y-60.36
X87.15Y-65.44
X87.15Y-132.92
X87.15Y-138.0
X151.96Y-113.96
X151.96Y-119.04
X157.04Y-113.96
X157.04Y-119.04
M30
