G04 #@! TF.GenerationSoftware,KiCad,Pcbnew,9.0.3*
G04 #@! TF.CreationDate,2025-07-30T16:46:21-07:00*
G04 #@! TF.ProjectId,analog-lockbox-v2,616e616c-6f67-42d6-9c6f-636b626f782d,rev?*
G04 #@! TF.SameCoordinates,Original*
G04 #@! TF.FileFunction,Paste,Top*
G04 #@! TF.FilePolarity,Positive*
%FSLAX46Y46*%
G04 Gerber Fmt 4.6, Leading zero omitted, Abs format (unit mm)*
G04 Created by KiCad (PCBNEW 9.0.3) date 2025-07-30 16:46:21*
%MOMM*%
%LPD*%
G01*
G04 APERTURE LIST*
G04 Aperture macros list*
%AMRoundRect*
0 Rectangle with rounded corners*
0 $1 Rounding radius*
0 $2 $3 $4 $5 $6 $7 $8 $9 X,Y pos of 4 corners*
0 Add a 4 corners polygon primitive as box body*
4,1,4,$2,$3,$4,$5,$6,$7,$8,$9,$2,$3,0*
0 Add four circle primitives for the rounded corners*
1,1,$1+$1,$2,$3*
1,1,$1+$1,$4,$5*
1,1,$1+$1,$6,$7*
1,1,$1+$1,$8,$9*
0 Add four rect primitives between the rounded corners*
20,1,$1+$1,$2,$3,$4,$5,0*
20,1,$1+$1,$4,$5,$6,$7,0*
20,1,$1+$1,$6,$7,$8,$9,0*
20,1,$1+$1,$8,$9,$2,$3,0*%
G04 Aperture macros list end*
%ADD10RoundRect,0.250000X0.625000X-0.312500X0.625000X0.312500X-0.625000X0.312500X-0.625000X-0.312500X0*%
%ADD11RoundRect,0.225000X0.225000X0.250000X-0.225000X0.250000X-0.225000X-0.250000X0.225000X-0.250000X0*%
%ADD12RoundRect,0.250000X-0.312500X-0.625000X0.312500X-0.625000X0.312500X0.625000X-0.312500X0.625000X0*%
%ADD13RoundRect,0.225000X-0.225000X-0.250000X0.225000X-0.250000X0.225000X0.250000X-0.225000X0.250000X0*%
%ADD14RoundRect,0.250000X0.312500X0.625000X-0.312500X0.625000X-0.312500X-0.625000X0.312500X-0.625000X0*%
%ADD15RoundRect,0.225000X0.250000X-0.225000X0.250000X0.225000X-0.250000X0.225000X-0.250000X-0.225000X0*%
%ADD16RoundRect,0.250000X-0.625000X0.312500X-0.625000X-0.312500X0.625000X-0.312500X0.625000X0.312500X0*%
%ADD17R,5.080000X1.500000*%
%ADD18RoundRect,0.225000X-0.250000X0.225000X-0.250000X-0.225000X0.250000X-0.225000X0.250000X0.225000X0*%
%ADD19RoundRect,0.250000X-0.312500X-1.075000X0.312500X-1.075000X0.312500X1.075000X-0.312500X1.075000X0*%
G04 APERTURE END LIST*
D10*
X86100000Y-92625000D03*
X86100000Y-89700000D03*
D11*
X123575000Y-88400000D03*
X122025000Y-88400000D03*
D12*
X81122500Y-116230000D03*
X84047500Y-116230000D03*
D10*
X94285000Y-118292500D03*
X94285000Y-115367500D03*
D13*
X121994888Y-100900000D03*
X123544888Y-100900000D03*
D12*
X122837500Y-67700000D03*
X125762500Y-67700000D03*
D14*
X148462500Y-113600000D03*
X145537500Y-113600000D03*
X135162500Y-119100000D03*
X132237500Y-119100000D03*
D15*
X136210000Y-129980000D03*
X136210000Y-128430000D03*
D12*
X129037500Y-67700000D03*
X131962500Y-67700000D03*
D16*
X148300000Y-116537500D03*
X148300000Y-119462500D03*
D11*
X94375000Y-77500000D03*
X92825000Y-77500000D03*
D17*
X167237500Y-59300000D03*
X167237500Y-55050000D03*
X167237500Y-63550000D03*
X167237500Y-73000000D03*
X167237500Y-68750000D03*
X167237500Y-77250000D03*
D10*
X101000000Y-82862500D03*
X101000000Y-79937500D03*
D18*
X96300000Y-128425000D03*
X96300000Y-129975000D03*
D16*
X145700000Y-116537500D03*
X145700000Y-119462500D03*
D18*
X123810000Y-128525000D03*
X123810000Y-130075000D03*
D16*
X140000000Y-113537500D03*
X140000000Y-116462500D03*
D19*
X158037500Y-103300000D03*
X160962500Y-103300000D03*
D17*
X167237500Y-127100000D03*
X167237500Y-122850000D03*
X167237500Y-131350000D03*
D14*
X128962500Y-122900000D03*
X126037500Y-122900000D03*
D12*
X129037500Y-54895000D03*
X131962500Y-54895000D03*
D10*
X127200000Y-116462500D03*
X127200000Y-113537500D03*
D14*
X107062500Y-122900000D03*
X104137500Y-122900000D03*
D15*
X103520000Y-58562500D03*
X103520000Y-57012500D03*
D10*
X119840000Y-52257500D03*
X119840000Y-49332500D03*
X97085000Y-115592500D03*
X97085000Y-112667500D03*
D14*
X86462500Y-77462500D03*
X83537500Y-77462500D03*
D15*
X108700000Y-130175000D03*
X108700000Y-128625000D03*
D14*
X133862500Y-122900000D03*
X130937500Y-122900000D03*
D13*
X89735000Y-115130000D03*
X91285000Y-115130000D03*
D10*
X86100000Y-82825000D03*
X86100000Y-79900000D03*
D16*
X132600000Y-70275000D03*
X132600000Y-73200000D03*
D18*
X91020000Y-57012500D03*
X91020000Y-58562500D03*
X124610000Y-60415000D03*
X124610000Y-61965000D03*
D10*
X97085000Y-110692500D03*
X97085000Y-107767500D03*
D12*
X100675000Y-77500000D03*
X103600000Y-77500000D03*
D13*
X92825000Y-90100000D03*
X94375000Y-90100000D03*
D10*
X101000000Y-87762500D03*
X101000000Y-84837500D03*
X119900000Y-73200000D03*
X119900000Y-70275000D03*
D12*
X122837500Y-54895000D03*
X125762500Y-54895000D03*
D10*
X86100000Y-87725000D03*
X86100000Y-84800000D03*
D15*
X137010000Y-62090000D03*
X137010000Y-60540000D03*
D14*
X122712500Y-137400000D03*
X119787500Y-137400000D03*
D11*
X91360000Y-102530000D03*
X89810000Y-102530000D03*
D16*
X132540000Y-49332500D03*
X132540000Y-52257500D03*
D10*
X101000000Y-92625000D03*
X101000000Y-89700000D03*
M02*
